<?xml version="1.0" encoding="utf-8"?>
<!-- Generator: Adobe Illustrator 20.1.0, SVG Export Plug-In . SVG Version: 6.00 Build 0)  -->
<svg version="1.1" id="Layer_1" xmlns="http://www.w3.org/2000/svg" xmlns:xlink="http://www.w3.org/1999/xlink" x="0px" y="0px"
	 width="300px" height="114.6px" viewBox="0 0 300 114.6" style="enable-background:new 0 0 300 114.6;" xml:space="preserve">
<style type="text/css">
	.st0{fill:#00A760;}
</style>
<title>Vorwerk</title>
<g transform="matrix(0.28222223,0,0,0.28222223,27.035058,-10.830934)">
	<g transform="matrix(1.6345922,0,0,1.6345922,118.70845,-224.21545)">
		<path class="st0" d="M389,214h-11.8c-19.4-26.4-50.7-43.6-85.9-43.6c-37.5,0-70.5,19.4-89.5,48.8c-19-29.3-52-48.8-89.5-48.8
			c-35.3,0-66.5,17.2-85.9,43.6H14.7c20.7-32.1,56.7-53.4,97.7-53.4c36,0,68.2,16.4,89.5,42.1c21.3-25.7,53.5-42.1,89.5-42.1
			C332.3,160.6,368.3,181.9,389,214"/>
		<path class="st0" d="M389.2,355.4c-20.6,32.3-56.8,53.7-97.9,53.7c-36,0-68.2-16.4-89.5-42.1c-21.3,25.7-53.5,42.1-89.5,42.1
			c-41.2,0-77.3-21.4-97.9-53.7v0h11.7c19.3,26.6,50.7,44,86.2,44c37.5,0,70.5-19.4,89.5-48.8c19,29.3,52,48.8,89.5,48.8
			c35.4,0,66.9-17.3,86.2-44L389.2,355.4"/>
		<path class="st0" d="M-23.7,287.5c0-18,11.5-32.6,26-32.6c14.5,0,26,14.6,26,32.6c0,18-11.5,32.6-26,32.6
			C-12.2,320.1-23.7,305.5-23.7,287.5z M-43.7,287.5c0-25.8,20.6-46.6,46-46.6s46,20.9,46,46.6s-20.6,46.6-46,46.6
			S-43.7,313.3-43.7,287.5"/>
		<path class="st0" d="M440.2,331.7h18.9v-88h-18.9V331.7z"/>
		<path class="st0" d="M-87.7,308.2l-21.9-64.5h-21.6l32.9,88h18.6l32.4-88h-17.8l-22.5,64.7L-87.7,308.2"/>
		<path class="st0" d="M272,243.7v88h63.8v-14.3H291v-24h38.2v-14.3H291V258h42.9v-14.3L272,243.7"/>
		<path class="st0" d="M200.7,275.3l14.2,56.4h18.8l24.7-88h-16.9l-15.9,61l-13.8-61h-17.8l-15,61.3l-14-61.3h-21.1l24.4,88h18.6
			L200.7,275.3"/>
		<path class="st0" d="M90.4,289.2l23.9,42.4h23.8l-22.7-33.5c5.9-2.2,18.9-10.5,18.9-25.4c0-18.8-14.6-29-29.9-29H63.7v88h18.9
			v-74.5h16.1c8.5,0,16.2,5.5,16.2,16c0,10.5-9.2,16.2-19.4,16.2C93.6,289.4,91.9,289.5,90.4,289.2"/>
		<path class="st0" d="M379.7,289.2l23.9,42.4h23.8l-22.7-33.5c6-2.2,18.9-10.5,18.9-25.4c0-18.8-14.6-29-29.9-29H353v88h18.9v-74.5
			h16.1c8.5,0,16.2,5.5,16.2,16c0,10.5-9.2,16.2-19.4,16.2C382.9,289.4,381.2,289.5,379.7,289.2"/>
		<path class="st0" d="M461.6,283.9l32.2,47.8h25.2l-36.8-48.8l32.7-39.2h-22.7L461.6,283.9"/>
	</g>
</g>
</svg>
